<svg width="14" height="15" viewBox="0 0 14 15" fill="none" xmlns="http://www.w3.org/2000/svg">
<path d="M11.1083 2.23431C9.98992 1.11592 8.50294 0.5 6.92131 0.5C5.33969 0.5 3.85268 1.11592 2.73431 2.23431C1.61592 3.35273 1 4.83969 1 6.42129C1 9.62084 4.02527 12.2821 5.65056 13.7118C5.87642 13.9105 6.07147 14.082 6.22686 14.2272C6.42155 14.4091 6.67144 14.5 6.92128 14.5C7.17118 14.5 7.42102 14.4091 7.61574 14.2272C7.77113 14.082 7.96618 13.9105 8.19204 13.7118C9.81733 12.2821 12.8426 9.62084 12.8426 6.42129C12.8426 4.83969 12.2267 3.35273 11.1083 2.23431ZM7.65035 13.0961C7.41954 13.2991 7.22023 13.4744 7.0559 13.6279C6.9804 13.6984 6.86217 13.6984 6.78664 13.6279C6.62233 13.4744 6.423 13.2991 6.19219 13.096C4.66421 11.7519 1.82004 9.25001 1.82004 6.42131C1.82004 3.6085 4.10842 1.32012 6.92126 1.32012C9.73407 1.32012 12.0224 3.6085 12.0224 6.42131C12.0225 9.25001 9.17833 11.7519 7.65035 13.0961Z" fill="#5E6263" stroke="#5E6263" stroke-width="0.5"/>
<path d="M6.92146 3.58813C5.4826 3.58813 4.31201 4.7587 4.31201 6.19756C4.31201 7.63643 5.4826 8.80699 6.92146 8.80699C8.36032 8.80699 9.53089 7.63643 9.53089 6.19756C9.53089 4.7587 8.36032 3.58813 6.92146 3.58813ZM6.92146 7.98687C5.93482 7.98687 5.13211 7.18416 5.13211 6.19754C5.13211 5.21091 5.93482 4.40821 6.92146 4.40821C7.90811 4.40821 8.71079 5.21091 8.71079 6.19754C8.71079 7.18416 7.90811 7.98687 6.92146 7.98687Z" fill="#5E6263" stroke="#5E6263" stroke-width="0.5"/>
</svg>
