<svg width="16" height="16" viewBox="0 0 16 16" fill="none" xmlns="http://www.w3.org/2000/svg">
<path fill-rule="evenodd" clip-rule="evenodd" d="M11.0638 11.4935C9.89095 12.6663 8.27069 13.3917 6.48101 13.3917C2.90165 13.3917 0 10.4901 0 6.9107C0 3.33134 2.90165 0.429688 6.48101 0.429688C10.0604 0.429688 12.962 3.33134 12.962 6.9107C12.962 8.26123 12.5489 9.51527 11.8422 10.5534L15.822 14.5332C16.0593 14.7705 16.0593 15.1552 15.822 15.3925C15.5848 15.6297 15.2001 15.6297 14.9628 15.3925L11.0638 11.4935ZM11.7468 6.9107C11.7468 9.81893 9.38925 12.1765 6.48101 12.1765C3.57278 12.1765 1.21519 9.81893 1.21519 6.9107C1.21519 4.00247 3.57278 1.64488 6.48101 1.64488C9.38925 1.64488 11.7468 4.00247 11.7468 6.9107Z" fill="#191C1F"/>
</svg>
